<?xml version="1.0" encoding="UTF-8"?>
<svg width="560px" height="300px" viewBox="0 0 560 300" version="1.1" xmlns="http://www.w3.org/2000/svg" xmlns:xlink="http://www.w3.org/1999/xlink">
    <!-- Generator: Sketch 60 (88103) - https://sketch.com -->
    <title>边框</title>
    <desc>Created with Sketch.</desc>
    <defs>
        <linearGradient x1="50%" y1="0%" x2="50%" y2="100%" id="linearGradient-1">
            <stop stop-color="#009EF5" offset="0%"></stop>
            <stop stop-color="#1ABBE6" offset="100%"></stop>
        </linearGradient>
        <linearGradient x1="50%" y1="0%" x2="50%" y2="100%" id="linearGradient-2">
            <stop stop-color="#1ABBE6" offset="0%"></stop>
            <stop stop-color="#009EF5" offset="100%"></stop>
        </linearGradient>
    </defs>
    <g id="数据大屏" stroke="none" stroke-width="1" fill="none" fill-rule="evenodd">
        <g id="数据大屏-Operations" transform="translate(-50.000000, -80.000000)">
            <g id="Managed-Vessel" transform="translate(50.000000, 80.000000)">
                <g id="边框" transform="translate(280.000000, 150.000000) scale(-1, -1) translate(-280.000000, -150.000000) ">
                    <polygon id="路径" fill-opacity="0.3" fill="#021646" transform="translate(281.000000, 149.500000) scale(1, -1) translate(-281.000000, -149.500000) " points="140.125 2 26.828 2 4 24.8443685 4 297 16.309892 297 22.5230582 294.237768 51.7940926 294.237768 58.0213807 297 548.165 297 558 287.088749 558 157.581058 552.901068 152.474933 552.901068 48.0542131 558 42.8024324 558 7.98545393 548.861701 7.98613388 534.927 3.02373353 419.351 3.02373353 398.582716 26.5137083 160.246685 26.5137083"></polygon>
                    <polygon id="矩形" fill-opacity="0.4" fill="#1ABAE6" points="168.611583 276 389.539743 276 408.018675 298 150.565792 298"></polygon>
                    <path d="M140.565792,0 L160.685441,24.5129369 L397.351926,24.5129369 L418.121215,0.0229851403 L535.651076,0.0229851403 L549.58602,3.98532618 L560,3.98532618 L560,39.8306217 L554.901068,45.0818892 L554.901068,151.645533 L560,156.751667 L560,286.913797 L548.997905,298 L60,298 L51.9837555,294 L21.9809946,294 L14,298 L2,298 L2,24.017117 L26,0 L140.565792,0 Z M140.125,2 L26.828,2 L4,24.8443685 L4,296 L14,296 L21.9809946,292 L51.9837555,292 L60,296 L548.165,296 L558,286.088749 L558,157.581058 L552.901068,152.474933 L552.901068,44.0542131 L558,38.8024324 L558,5.98545393 L548.861701,5.98613388 L534.927,2.02373353 L419.351,2.02373353 L398.582716,26.5137083 L160.246685,26.5137083 L140.125,2 Z" id="形状结合" fill="url(#linearGradient-2)" fill-rule="nonzero" transform="translate(281.000000, 149.000000) scale(1, -1) translate(-281.000000, -149.000000) "></path>
                    <polygon id="路径-18" fill="#3BF2EC" fill-rule="nonzero" transform="translate(559.000000, 200.000000) rotate(-270.000000) translate(-559.000000, -200.000000) " points="601 199 601 201 517 201 517 199"></polygon>
                    <path d="M22,278 L0,300 L0,278 L22,278 Z M14.758,280.999255 L3,280.999255 L3,292.757255 L14.758,280.999255 Z" id="路径-16" fill="#3BF2EC" fill-rule="nonzero" transform="translate(11.000000, 289.000000) scale(1, -1) translate(-11.000000, -289.000000) "></path>
                </g>
            </g>
        </g>
    </g>
</svg>