<?xml version="1.0" encoding="UTF-8"?>
<svg width="692px" height="622px" viewBox="0 0 692 622" version="1.1" xmlns="http://www.w3.org/2000/svg" xmlns:xlink="http://www.w3.org/1999/xlink">
    <!-- Generator: Sketch 60 (88103) - https://sketch.com -->
    <title>边框</title>
    <desc>Created with Sketch.</desc>
    <defs>
        <linearGradient x1="50%" y1="0%" x2="50%" y2="100%" id="linearGradient-1">
            <stop stop-color="#009EF5" offset="0%"></stop>
            <stop stop-color="#1ABBE6" offset="100%"></stop>
        </linearGradient>
        <linearGradient x1="50%" y1="0%" x2="50%" y2="100%" id="linearGradient-2">
            <stop stop-color="#009EF5" offset="0%"></stop>
            <stop stop-color="#1ABBE6" offset="100%"></stop>
        </linearGradient>
        <filter x="-449.3%" y="-7.0%" width="998.7%" height="113.9%" filterUnits="objectBoundingBox" id="filter-3">
            <feGaussianBlur stdDeviation="3" in="SourceGraphic"></feGaussianBlur>
        </filter>
        <filter x="-178.4%" y="-3.2%" width="456.8%" height="106.4%" filterUnits="objectBoundingBox" id="filter-4">
            <feGaussianBlur stdDeviation="1" in="SourceGraphic"></feGaussianBlur>
        </filter>
        <filter x="-178.4%" y="-6.5%" width="456.8%" height="113.0%" filterUnits="objectBoundingBox" id="filter-5">
            <feGaussianBlur stdDeviation="1" in="SourceGraphic"></feGaussianBlur>
        </filter>
        <filter x="-449.3%" y="-7.0%" width="998.7%" height="113.9%" filterUnits="objectBoundingBox" id="filter-6">
            <feGaussianBlur stdDeviation="3" in="SourceGraphic"></feGaussianBlur>
        </filter>
        <filter x="-178.4%" y="-3.2%" width="456.8%" height="106.4%" filterUnits="objectBoundingBox" id="filter-7">
            <feGaussianBlur stdDeviation="1" in="SourceGraphic"></feGaussianBlur>
        </filter>
        <filter x="-178.4%" y="-6.5%" width="456.8%" height="113.0%" filterUnits="objectBoundingBox" id="filter-8">
            <feGaussianBlur stdDeviation="1" in="SourceGraphic"></feGaussianBlur>
        </filter>
        <path d="M5.71040542,591.538012 L12.8709003,598.51107 L666.055668,598.51107 L673.216163,591.538012 L680,591.538012 L680,600.769006 L670.963641,610 L618.21613,610 L600.203388,602.777219 L451.799669,602.777219 L444.200264,606.022506 L234.831677,606.022506 L227.592082,602.777219 L88.9597608,602.777219 L72.1338115,610 L9.53809328,610 L-5.68434189e-14,600.711581 L-5.68434189e-14,591.538012 L5.71040542,591.538012 Z M11.7207484,601.608187 L11.2680572,601.608187 L11.1545599,601.615237 C10.7084192,601.67107 10.3632479,602.051723 10.3632479,602.512996 C10.3632479,602.748614 10.4551578,602.974938 10.6194339,603.143843 L10.6194339,603.143843 L12.8450123,605.432136 L13.0106055,605.592857 C13.7460801,606.26662 14.7094765,606.643275 15.7124598,606.643275 L15.7124598,606.643275 L16.165151,606.643275 C16.6648634,606.643275 17.0699603,606.238178 17.0699603,605.738466 C17.0699603,605.502848 16.9780504,605.276524 16.8137743,605.107619 L16.8137743,605.107619 L14.5881959,602.819326 L14.4226027,602.658605 C13.6871281,601.984842 12.7237318,601.608187 11.7207484,601.608187 L11.7207484,601.608187 Z M19.1821632,601.608187 L18.7294719,601.608187 L18.6159746,601.615237 C18.169834,601.67107 17.8246626,602.051723 17.8246626,602.512996 C17.8246626,602.748614 17.9165725,602.974938 18.0808486,603.143843 L18.0808486,603.143843 L20.306427,605.432136 L20.4720203,605.592857 C21.2074948,606.26662 22.1708912,606.643275 23.1738745,606.643275 L23.1738745,606.643275 L23.6265657,606.643275 C24.1262781,606.643275 24.5313751,606.238178 24.5313751,605.738466 C24.5313751,605.502848 24.4394651,605.276524 24.275189,605.107619 L24.275189,605.107619 L22.0496106,602.819326 L21.8840174,602.658605 C21.1485429,601.984842 20.1851465,601.608187 19.1821632,601.608187 L19.1821632,601.608187 Z M26.8940565,601.608187 L26.4413653,601.608187 L26.3278679,601.615237 C25.8817273,601.67107 25.536556,602.051723 25.536556,602.512996 C25.536556,602.748614 25.6284659,602.974938 25.792742,603.143843 L25.792742,603.143843 L28.0183204,605.432136 L28.1839136,605.592857 C28.9193882,606.26662 29.8827845,606.643275 30.8857679,606.643275 L30.8857679,606.643275 L31.3384591,606.643275 C31.8381715,606.643275 32.2432684,606.238178 32.2432684,605.738466 C32.2432684,605.502848 32.1513585,605.276524 31.9870824,605.107619 L31.9870824,605.107619 L29.761504,602.819326 L29.5959108,602.658605 C28.8604362,601.984842 27.8970398,601.608187 26.8940565,601.608187 L26.8940565,601.608187 Z M668.731943,601.608187 L668.279252,601.608187 C667.199116,601.608187 666.164891,602.045018 665.411804,602.819326 L665.411804,602.819326 L663.186226,605.107619 C663.02195,605.276524 662.93004,605.502848 662.93004,605.738466 C662.93004,606.238178 663.335137,606.643275 663.834849,606.643275 L663.834849,606.643275 L664.28754,606.643275 C665.367676,606.643275 666.401901,606.206444 667.154988,605.432136 L667.154988,605.432136 L669.380566,603.143843 C669.544842,602.974938 669.636752,602.748614 669.636752,602.512996 C669.636752,602.013284 669.231655,601.608187 668.731943,601.608187 L668.731943,601.608187 Z M661.270528,601.608187 L660.817837,601.608187 C659.737701,601.608187 658.703477,602.045018 657.950389,602.819326 L657.950389,602.819326 L655.724811,605.107619 C655.560535,605.276524 655.468625,605.502848 655.468625,605.738466 C655.468625,606.238178 655.873722,606.643275 656.373434,606.643275 L656.373434,606.643275 L656.826125,606.643275 C657.906261,606.643275 658.940486,606.206444 659.693573,605.432136 L659.693573,605.432136 L661.919151,603.143843 C662.083427,602.974938 662.175337,602.748614 662.175337,602.512996 C662.175337,602.013284 661.77024,601.608187 661.270528,601.608187 L661.270528,601.608187 Z M653.558635,601.608187 L653.105943,601.608187 C652.025808,601.608187 650.991583,602.045018 650.238496,602.819326 L650.238496,602.819326 L648.012918,605.107619 C647.848642,605.276524 647.756732,605.502848 647.756732,605.738466 C647.756732,606.238178 648.161829,606.643275 648.661541,606.643275 L648.661541,606.643275 L649.114232,606.643275 C650.194368,606.643275 651.228592,606.206444 651.98168,605.432136 L651.98168,605.432136 L654.207258,603.143843 C654.371534,602.974938 654.463444,602.748614 654.463444,602.512996 C654.463444,602.013284 654.058347,601.608187 653.558635,601.608187 L653.558635,601.608187 Z M72.1338115,0 L88.9597608,7.22278122 L600.203388,7.22278122 L618.21613,0 L670.963641,0 L680,9.23099415 L680,18.4619883 L673.216163,18.4619883 L666.055668,11.4889302 L466.619,11.488 L441.003717,37.9703804 L238.996283,37.9703804 L213.381,11.488 L12.8709003,11.4889302 L5.71040542,18.4619883 L0,18.4619883 L0,9.28841934 L9.53809328,0 L72.1338115,0 Z M16.165151,3.35672515 L15.7124598,3.35672515 C14.7094765,3.35672515 13.7460801,3.73338035 13.0106055,4.40714275 L12.8450123,4.56786427 L10.6194339,6.85615668 C10.4551578,7.02506186 10.3632479,7.25138605 10.3632479,7.48700352 C10.3632479,7.94827651 10.7084192,8.3289304 11.1545599,8.38476312 L11.2680572,8.39181287 L11.7207484,8.39181287 C12.7237318,8.39181287 13.6871281,8.01515766 14.4226027,7.34139526 L14.5881959,7.18067374 L16.8137743,4.89238133 C16.9780504,4.72347615 17.0699603,4.49715196 17.0699603,4.26153449 C17.0699603,3.76182209 16.6648634,3.35672515 16.165151,3.35672515 Z M23.6265657,3.35672515 L23.1738745,3.35672515 C22.1708912,3.35672515 21.2074948,3.73338035 20.4720203,4.40714275 L20.306427,4.56786427 L18.0808486,6.85615668 C17.9165725,7.02506186 17.8246626,7.25138605 17.8246626,7.48700352 C17.8246626,7.94827651 18.169834,8.3289304 18.6159746,8.38476312 L18.7294719,8.39181287 L19.1821632,8.39181287 C20.1851465,8.39181287 21.1485429,8.01515766 21.8840174,7.34139526 L22.0496106,7.18067374 L24.275189,4.89238133 C24.4394651,4.72347615 24.5313751,4.49715196 24.5313751,4.26153449 C24.5313751,3.76182209 24.1262781,3.35672515 23.6265657,3.35672515 Z M31.3384591,3.35672515 L30.8857679,3.35672515 C29.8827845,3.35672515 28.9193882,3.73338035 28.1839136,4.40714275 L28.0183204,4.56786427 L25.792742,6.85615668 C25.6284659,7.02506186 25.536556,7.25138605 25.536556,7.48700352 C25.536556,7.94827651 25.8817273,8.3289304 26.3278679,8.38476312 L26.4413653,8.39181287 L26.8940565,8.39181287 C27.8970398,8.39181287 28.8604362,8.01515766 29.5959108,7.34139526 L29.761504,7.18067374 L31.9870824,4.89238133 C32.1513585,4.72347615 32.2432684,4.49715196 32.2432684,4.26153449 C32.2432684,3.76182209 31.8381715,3.35672515 31.3384591,3.35672515 Z M664.28754,3.35672515 L663.834849,3.35672515 C663.335137,3.35672515 662.93004,3.76182209 662.93004,4.26153449 C662.93004,4.49715196 663.02195,4.72347615 663.186226,4.89238133 L665.411804,7.18067374 C666.164891,7.95498198 667.199116,8.39181287 668.279252,8.39181287 L668.731943,8.39181287 C669.231655,8.39181287 669.636752,7.98671592 669.636752,7.48700352 C669.636752,7.25138605 669.544842,7.02506186 669.380566,6.85615668 L667.154988,4.56786427 C666.401901,3.79355604 665.367676,3.35672515 664.28754,3.35672515 Z M656.826125,3.35672515 L656.373434,3.35672515 C655.873722,3.35672515 655.468625,3.76182209 655.468625,4.26153449 C655.468625,4.49715196 655.560535,4.72347615 655.724811,4.89238133 L657.950389,7.18067374 C658.703477,7.95498198 659.737701,8.39181287 660.817837,8.39181287 L661.270528,8.39181287 C661.77024,8.39181287 662.175337,7.98671592 662.175337,7.48700352 C662.175337,7.25138605 662.083427,7.02506186 661.919151,6.85615668 L659.693573,4.56786427 C658.940486,3.79355604 657.906261,3.35672515 656.826125,3.35672515 Z M649.114232,3.35672515 L648.661541,3.35672515 C648.161829,3.35672515 647.756732,3.76182209 647.756732,4.26153449 C647.756732,4.49715196 647.848642,4.72347615 648.012918,4.89238133 L650.238496,7.18067374 C650.991583,7.95498198 652.025808,8.39181287 653.105943,8.39181287 L653.558635,8.39181287 C654.058347,8.39181287 654.463444,7.98671592 654.463444,7.48700352 C654.463444,7.25138605 654.371534,7.02506186 654.207258,6.85615668 L651.98168,4.56786427 C651.228592,3.79355604 650.194368,3.35672515 649.114232,3.35672515 Z" id="path-9"></path>
        <filter x="-1.6%" y="-2.5%" width="103.2%" height="103.6%" filterUnits="objectBoundingBox" id="filter-10">
            <feOffset dx="0" dy="-4" in="SourceAlpha" result="shadowOffsetOuter1"></feOffset>
            <feGaussianBlur stdDeviation="3" in="shadowOffsetOuter1" result="shadowBlurOuter1"></feGaussianBlur>
            <feComposite in="shadowBlurOuter1" in2="SourceAlpha" operator="out" result="shadowBlurOuter1"></feComposite>
            <feColorMatrix values="0 0 0 0 0   0 0 0 0 0.909364073   0 0 0 0 1  0 0 0 0.2 0" type="matrix" in="shadowBlurOuter1"></feColorMatrix>
        </filter>
        <filter x="-1.3%" y="-2.0%" width="102.5%" height="102.8%" filterUnits="objectBoundingBox" id="filter-11">
            <feGaussianBlur stdDeviation="2" in="SourceAlpha" result="shadowBlurInner1"></feGaussianBlur>
            <feOffset dx="0" dy="1" in="shadowBlurInner1" result="shadowOffsetInner1"></feOffset>
            <feComposite in="shadowOffsetInner1" in2="SourceAlpha" operator="arithmetic" k2="-1" k3="1" result="shadowInnerInner1"></feComposite>
            <feColorMatrix values="0 0 0 0 0.127743902   0 0 0 0 0.535179316   0 0 0 0 1  0 0 0 0.4 0" type="matrix" in="shadowInnerInner1"></feColorMatrix>
        </filter>
    </defs>
    <g id="数据大屏" stroke="none" stroke-width="1" fill="none" fill-rule="evenodd">
        <g id="数据大屏-Operations" transform="translate(-614.000000, -70.000000)">
            <g id="地图" transform="translate(620.000000, 80.000000)">
                <g id="边框">
                    <path d="M1,443.103504 L3.40509173,449.234615 L3.40509173,494.74222 L1,500.627115 L1,599 L679,599 L679,285.563878 L673.915866,273.705938 L673.915866,78.3825222 L679,71.4379739 L679,26.0247678 L666.80817,26.0247678 L653.616426,11 L19.763019,11 L1,31.8006638 L1,443.103504 Z" id="路径-5" stroke="url(#linearGradient-2)" stroke-width="2"></path>
                    <g id="光" transform="translate(0.000000, 152.000000)">
                        <ellipse id="椭圆形" fill-opacity="0.3" fill="#FFFFFF" filter="url(#filter-3)" cx="1.00147275" cy="64.6673649" rx="1.00147275" ry="64.6673649"></ellipse>
                        <ellipse id="椭圆形" fill-opacity="0.6" fill="#E1F4FF" filter="url(#filter-4)" cx="1.00147275" cy="64.6776643" rx="1" ry="47.0308109"></ellipse>
                        <ellipse id="椭圆形" fill-opacity="0.8" fill="#FFFFFF" filter="url(#filter-5)" cx="1.00147275" cy="64.6776643" rx="1" ry="23"></ellipse>
                    </g>
                    <g id="光" transform="translate(677.997054, 352.000000)">
                        <ellipse id="椭圆形" fill-opacity="0.3" fill="#FFFFFF" filter="url(#filter-6)" cx="1.00147275" cy="64.6673649" rx="1.00147275" ry="64.6673649"></ellipse>
                        <ellipse id="椭圆形" fill-opacity="0.6" fill="#E1F4FF" filter="url(#filter-7)" cx="1.00147275" cy="64.6776643" rx="1" ry="47.0308109"></ellipse>
                        <ellipse id="椭圆形" fill-opacity="0.8" fill="#FFFFFF" filter="url(#filter-8)" cx="1.00147275" cy="64.6776643" rx="1" ry="23"></ellipse>
                    </g>
                    <g id="外框">
                        <use fill="black" fill-opacity="1" filter="url(#filter-10)" xlink:href="#path-9"></use>
                        <use fill="url(#linearGradient-1)" fill-rule="evenodd" xlink:href="#path-9"></use>
                        <use fill="black" fill-opacity="1" filter="url(#filter-11)" xlink:href="#path-9"></use>
                        <path stroke-opacity="0.50352382" stroke="#61D2FF" stroke-width="0.5" d="M5.60878877,591.788012 L0.25,591.788012 L0.25,600.60608 L9.63970992,609.75 L72.0824208,609.75 L88.8611465,602.54749 L88.9597608,602.527219 L227.592082,602.527219 L227.694344,602.549091 L234.885148,605.772506 L444.149117,605.772506 L451.701486,602.547306 L451.799669,602.527219 L600.296432,602.545178 L618.21613,609.75 L670.858524,609.75 L679.75,600.667009 L679.75,591.788012 L673.31778,591.788012 L666.230085,598.690175 L666.055668,598.76107 L12.8709003,598.76107 L12.6964833,598.690175 L5.60878877,591.788012 Z M11.7207484,601.358187 C12.7842985,601.358187 13.8084563,601.756945 14.5967208,602.479209 L14.7674114,602.645022 L16.9929898,604.933315 C17.2026556,605.148889 17.3199603,605.437747 17.3199603,605.738466 C17.3199603,606.376249 16.8029346,606.893275 16.165151,606.893275 L15.7124598,606.893275 C14.6489097,606.893275 13.6247519,606.494517 12.8364874,605.772253 L12.6657968,605.60644 L10.4402184,603.318147 C10.2305527,603.102573 10.1132479,602.813715 10.1132479,602.512996 C10.1132479,601.929087 10.5488456,601.43909 11.1390613,601.365718 L11.2680572,601.358187 L11.7207484,601.358187 Z M19.1821632,601.358187 C20.2457132,601.358187 21.269871,601.756945 22.0581355,602.479209 L22.2288261,602.645022 L24.4544045,604.933315 C24.6640703,605.148889 24.7813751,605.437747 24.7813751,605.738466 C24.7813751,606.376249 24.2643493,606.893275 23.6265657,606.893275 L23.1738745,606.893275 C22.1103244,606.893275 21.0861667,606.494517 20.2979021,605.772253 L20.1272116,605.60644 L17.9016332,603.318147 C17.6919674,603.102573 17.5746626,602.813715 17.5746626,602.512996 C17.5746626,601.929087 18.0102604,601.43909 18.600476,601.365718 L18.7294719,601.358187 L19.1821632,601.358187 Z M26.8940565,601.358187 C27.9576066,601.358187 28.9817644,601.756945 29.7700289,602.479209 L29.9407195,602.645022 L32.1662979,604.933315 C32.3759636,605.148889 32.4932684,605.437747 32.4932684,605.738466 C32.4932684,606.376249 31.9762427,606.893275 31.3384591,606.893275 L30.8857679,606.893275 C29.8222178,606.893275 28.79806,606.494517 28.0097955,605.772253 L27.8391049,605.60644 L25.6135265,603.318147 C25.4038607,603.102573 25.286556,602.813715 25.286556,602.512996 C25.286556,601.929087 25.7221537,601.43909 26.3123694,601.365718 L26.4413653,601.358187 L26.8940565,601.358187 Z M668.731943,601.358187 C669.369726,601.358187 669.886752,601.875213 669.886752,602.512996 C669.886752,602.813715 669.769447,603.102573 669.559782,603.318147 L667.334203,605.60644 C666.534048,606.429142 665.435185,606.893275 664.28754,606.893275 L663.834849,606.893275 C663.197065,606.893275 662.68004,606.376249 662.68004,605.738466 C662.68004,605.437747 662.797344,605.148889 663.00701,604.933315 L665.232589,602.645022 C666.032744,601.82232 667.131607,601.358187 668.279252,601.358187 L668.731943,601.358187 Z M661.270528,601.358187 C661.908312,601.358187 662.425337,601.875213 662.425337,602.512996 C662.425337,602.813715 662.308033,603.102573 662.098367,603.318147 L659.872788,605.60644 C659.072633,606.429142 657.97377,606.893275 656.826125,606.893275 L656.373434,606.893275 C655.735651,606.893275 655.218625,606.376249 655.218625,605.738466 C655.218625,605.437747 655.33593,605.148889 655.545595,604.933315 L657.771174,602.645022 C658.571329,601.82232 659.670192,601.358187 660.817837,601.358187 L661.270528,601.358187 Z M653.558635,601.358187 C654.196418,601.358187 654.713444,601.875213 654.713444,602.512996 C654.713444,602.813715 654.596139,603.102573 654.386473,603.318147 L652.160895,605.60644 C651.36074,606.429142 650.261877,606.893275 649.114232,606.893275 L648.661541,606.893275 C648.023757,606.893275 647.506732,606.376249 647.506732,605.738466 C647.506732,605.437747 647.624036,605.148889 647.833702,604.933315 L650.059281,602.645022 C650.859436,601.82232 651.958299,601.358187 653.105943,601.358187 L653.558635,601.358187 Z M72.0824208,0.25 L9.63970992,0.25 L0.25,9.39392014 L0.25,18.2119883 L5.60878877,18.2119883 L12.6964833,11.3098248 L12.8708991,11.2389302 L213.380999,11.238 L213.560694,11.3141896 L239.102282,37.7203804 L440.897718,37.7203804 L466.439306,11.3141896 L466.619001,11.238 L666.055669,11.2389302 L666.230085,11.3098248 L673.31778,18.2119883 L679.75,18.2119883 L679.75,9.33299066 L670.858489,0.249964135 L618.309174,0.232040534 L600.203388,7.47278122 L88.9597608,7.47278122 L88.8611465,7.45250979 L72.0824208,0.25 Z M16.165151,3.10672515 C16.8029346,3.10672515 17.3199603,3.6237509 17.3199603,4.26153449 C17.3199603,4.56225338 17.2026556,4.85111124 16.9929898,5.06668514 L14.762314,7.36006963 L14.5914763,7.52573654 C13.8084563,8.24305495 12.7842985,8.64181287 11.7207484,8.64181287 L11.2525586,8.64133199 L11.1235155,8.63282813 C10.5488456,8.56091049 10.1132479,8.07091294 10.1132479,7.48700352 C10.1132479,7.18628463 10.2305527,6.89742678 10.4402184,6.68185287 L12.6708942,4.38846838 L12.8417319,4.22280147 C13.6247519,3.50548306 14.6489097,3.10672515 15.7124598,3.10672515 L16.165151,3.10672515 Z M23.6265657,3.10672515 C24.2643493,3.10672515 24.7813751,3.6237509 24.7813751,4.26153449 C24.7813751,4.56225338 24.6640703,4.85111124 24.4544045,5.06668514 L22.2237287,7.36006963 L22.052891,7.52573654 C21.269871,8.24305495 20.2457132,8.64181287 19.1821632,8.64181287 L18.7139734,8.64133199 L18.5849302,8.63282813 C18.0102604,8.56091049 17.5746626,8.07091294 17.5746626,7.48700352 C17.5746626,7.18628463 17.6919674,6.89742678 17.9016332,6.68185287 L20.1323089,4.38846838 L20.3031467,4.22280147 C21.0861667,3.50548306 22.1103244,3.10672515 23.1738745,3.10672515 L23.6265657,3.10672515 Z M31.3384591,3.10672515 C31.9762427,3.10672515 32.4932684,3.6237509 32.4932684,4.26153449 C32.4932684,4.56225338 32.3759636,4.85111124 32.1662979,5.06668514 L29.9356221,7.36006963 L29.7647844,7.52573654 C28.9817644,8.24305495 27.9576066,8.64181287 26.8940565,8.64181287 L26.4258667,8.64133199 L26.2968236,8.63282813 C25.7221537,8.56091049 25.286556,8.07091294 25.286556,7.48700352 C25.286556,7.18628463 25.4038607,6.89742678 25.6135265,6.68185287 L27.8442023,4.38846838 L28.01504,4.22280147 C28.79806,3.50548306 29.8222178,3.10672515 30.8857679,3.10672515 L31.3384591,3.10672515 Z M664.28754,3.10672515 C665.435185,3.10672515 666.534048,3.57085797 667.334203,4.39356046 L669.559782,6.68185287 C669.769447,6.89742678 669.886752,7.18628463 669.886752,7.48700352 C669.886752,8.12478711 669.369726,8.64181287 668.731943,8.64181287 L668.279252,8.64181287 C667.131607,8.64181287 666.032744,8.17768005 665.232589,7.35497755 L663.00701,5.06668514 C662.797344,4.85111124 662.68004,4.56225338 662.68004,4.26153449 C662.68004,3.6237509 663.197065,3.10672515 663.834849,3.10672515 L664.28754,3.10672515 Z M656.826125,3.10672515 C657.97377,3.10672515 659.072633,3.57085797 659.872788,4.39356046 L662.098367,6.68185287 C662.308033,6.89742678 662.425337,7.18628463 662.425337,7.48700352 C662.425337,8.12478711 661.908312,8.64181287 661.270528,8.64181287 L660.817837,8.64181287 C659.670192,8.64181287 658.571329,8.17768005 657.771174,7.35497755 L655.545595,5.06668514 C655.33593,4.85111124 655.218625,4.56225338 655.218625,4.26153449 C655.218625,3.6237509 655.735651,3.10672515 656.373434,3.10672515 L656.826125,3.10672515 Z M649.114232,3.10672515 C650.261877,3.10672515 651.36074,3.57085797 652.160895,4.39356046 L654.386473,6.68185287 C654.596139,6.89742678 654.713444,7.18628463 654.713444,7.48700352 C654.713444,8.12478711 654.196418,8.64181287 653.558635,8.64181287 L653.105943,8.64181287 C651.958299,8.64181287 650.859436,8.17768005 650.059281,7.35497755 L647.833702,5.06668514 C647.624036,4.85111124 647.506732,4.56225338 647.506732,4.26153449 C647.506732,3.6237509 648.023757,3.10672515 648.661541,3.10672515 L649.114232,3.10672515 Z" stroke-linejoin="square"></path>
                    </g>
                    <polyline id="路径_4122" stroke="#3BF2EC" stroke-width="2.00220022" transform="translate(235.846834, 28.500000) scale(-1, 1) translate(-235.846834, -28.500000) " points="252.371134 19 232.712807 38 219.322533 38"></polyline>
                    <polyline id="路径_4122备份" stroke="#3BF2EC" stroke-width="2.00220022" transform="translate(467.187040, 18.500000) scale(-1, -1) translate(-467.187040, -18.500000) " points="482.709867 11 468.217082 26 451.664212 26"></polyline>
                </g>
            </g>
        </g>
    </g>
</svg>