<?xml version="1.0" encoding="UTF-8"?>
<svg width="1900px" height="1049px" viewBox="0 0 1900 1049" version="1.1" xmlns="http://www.w3.org/2000/svg" xmlns:xlink="http://www.w3.org/1999/xlink">
    <!-- Generator: Sketch 60 (88103) - https://sketch.com -->
    <title>边框</title>
    <desc>Created with Sketch.</desc>
    <defs>
        <linearGradient x1="50%" y1="0%" x2="50%" y2="100%" id="linearGradient-1">
            <stop stop-color="#009EF5" offset="0%"></stop>
            <stop stop-color="#1ABBE6" offset="100%"></stop>
        </linearGradient>
        <linearGradient x1="50%" y1="15.5981744%" x2="50%" y2="76.1680652%" id="linearGradient-2">
            <stop stop-color="#2BB6FB" offset="0%"></stop>
            <stop stop-color="#2EF4FF" offset="100%"></stop>
        </linearGradient>
    </defs>
    <g id="数据大屏" stroke="none" stroke-width="1" fill="none" fill-rule="evenodd">
        <g id="数据大屏-Operations" transform="translate(-10.000000, -10.000000)">
            <g id="外框" transform="translate(10.000000, 10.000000)">
                <g id="边框">
                    <path d="M15,42.3346813 L17,43.9581351 L17,642.258376 L1.99922019,662.112659 L1.99922019,778.765831 L16.5754871,798.155323 L16.5752027,1046.97276 L513.030104,1046.97276 L522.977,1044.48525 L513.03801,1041.99595 L21.5,1042.00761 L21.5,795.965705 L6.82889179,775.61408 L8.2556706,774.213878 L23.5,795.1468 L23.5,1040.00852 L512.884978,1039.99785 L526.93,1043.49719 L541,1039.97988 L1359,1040.00951 L1373.067,1043.4902 L1387.01249,1040.00951 L1860.38069,1040.00851 C1860.25402,1040.66451 1860.15795,1041.3314 1860.094,1042.00764 L1387.14142,1042.00761 L1377.128,1044.49524 L1387.13885,1046.97276 L1860.20844,1046.97315 C1860.3058,1047.66023 1860.43649,1048.3366 1860.5988,1049.00059 L1387.1988,1049.00095 L1373.095,1045.49729 L1359,1049.00095 L541,1049.00095 L527.039,1045.50328 L513.066667,1049.00095 L14.5754871,1049.00095 L14.5752027,798.99412 L0,779.605914 L0,661.273186 L15,641.416652 L15,42.3346813 Z M1359,1041.99594 L541,1042.00761 L531,1044.51123 L541,1047.00285 L1359,1047.00285 L1369.051,1044.49225 L1359,1041.99594 Z M1891.74433,774.213878 L1893.17111,775.61408 L1878.5,795.965705 L1878.49913,1023.17292 C1877.82202,1023.25319 1877.15479,1023.36565 1876.49901,1023.50872 L1876.5,795.1468 L1891.74433,774.213878 Z M1738.01283,0 L1745.35584,3.9961941 L1875,3.9961941 L1876.462,5.993 L1878.499,8.776 L1885,17.658525 L1885,641.416652 L1900,661.273186 L1900,779.605914 L1885.4248,798.99412 L1885.42502,1023.49229 C1884.76909,1023.35174 1884.10179,1023.2418 1883.42469,1023.16403 L1883.42451,798.155323 L1898.00078,778.765831 L1898.00078,662.112659 L1883,642.258376 L1883,18.5461438 L1878.499,12.269 L1874,5.9932921 L1743.64324,5.9932921 L1736.66993,1.997098 L1571,1.997 L1571,2.16004992e-12 L1738.01283,0 Z M1876,652.378687 L1890,671.788773 L1890,768.839201 L1876,788.249286 L1876,652.378687 Z M24,652.378687 L24,788.249286 L10,768.839201 L10,671.788773 L24,652.378687 Z M44,48.953 L44,48.954 L23.49,48.954 L23.4903513,50.9514748 L23.499,50.951 L23.499,50.9492053 L44,50.949 L44,50.951 L23.499,50.951 L23.5,645.182226 L7.96576131,666.066419 L6.5389825,664.666217 L21.5,644.363321 L21.5,48.9545363 L23.49,48.954 L23.4903513,48.9533777 L44,48.953 Z M1593,37.963844 C1593,40.8910451 1592.51534,43.7051563 1591.62182,46.3304546 C1591.66393,46.2067517 1591.70519,46.0824258 1591.74553,45.9576874 L1878.499,45.957 L1878.5,644.363321 L1893.46102,664.666217 L1892.03424,666.066419 L1876.5,645.182226 L1876.501,47.9543292 L1591.00716,47.9547833 L1591.00716,47.9547833 L1588.82405,47.9538514 C1590.22111,44.9126444 1591,41.5291176 1591,37.963844 C1591,26.0834796 1582.3513,16.2212057 1571.00088,14.3183444 L1571.00067,12.2941877 C1583.4607,14.2166608 1593,24.9773012 1593,37.963844 Z M1563.00033,12.2940334 L1563.00012,14.3181769 C1551.64921,16.2206272 1543,26.0831311 1543,37.963844 C1543,41.5291176 1543.77889,44.9126444 1545.17595,47.9538514 L1543,47.9543292 L1542.99964,47.971052 L1542.992,47.954 L888.036607,47.9543292 L882.078133,51.9505233 L806.053029,51.9505233 L800.071409,47.9543292 L62.4987158,47.9543292 L54.9147186,47.9520597 L54.913,47.954 L53.531,47.954 L54.9147186,45.9573907 L800.071409,45.9573907 L806.053029,49.9535848 L882.078133,49.9535848 L888.036607,45.9573907 L1542.25447,45.9576874 C1542.29731,46.0901638 1542.3412,46.2221748 1542.3861,46.3537108 C1541.48755,43.7219037 1541,40.8997558 1541,37.963844 C1541,24.9769539 1550.53981,14.2160852 1563.00033,12.2940334 Z M1042.16692,0 L1051.10039,2.99714558 L1144.03476,2.99714558 L1152.00243,0 L1563,2.16004992e-12 L1563,1.997 L1152.00243,1.997098 L1144.03476,4.99424358 L1051.10039,4.99424358 L1042.16692,1.997098 L34.0098879,1.997098 L17,17.9828735 L17,34.5920552 L15,32.9686013 L15,16.9838249 L33.04897,0 L1042.16692,0 Z" id="形状结合" fill="url(#linearGradient-2)" fill-rule="nonzero"></path>
                    <path d="M1564,1.77635684e-15 L1564.00002,14.1721816 C1563.32388,14.2564144 1562.65647,14.368746 1561.99901,14.5079699 L1562,1.77635684e-15 L1564,1.77635684e-15 Z M1572,1.77635684e-15 L1572.00012,14.5077847 C1571.34326,14.368715 1570.67648,14.2564877 1570.00098,14.172306 L1570,1.77635684e-15 L1572,1.77635684e-15 Z" id="形状结合" fill="#2BB6FB" fill-rule="nonzero"></path>
                    <path d="M41.5,13.9866794 C52.545695,13.9866794 61.5,22.9324646 61.5,33.9676499 C61.5,39.4136509 59.3191386,44.3507692 55.7823188,47.9548865 L52.8147917,47.9542298 C56.8927186,44.6574566 59.5,39.6167451 59.5,33.9676499 C59.5,24.0359831 51.4411255,15.9847764 41.5,15.9847764 C31.5588745,15.9847764 23.5,24.0359831 23.5,33.9676499 L23.502,34.2766794 L23.387061,34.0487834 L23.2879678,34.0487834 L22.5241693,34.9666984 L21.5245791,34.9669847 C21.5082571,34.6359278 21.5,34.3027522 21.5,33.9676499 C21.5,22.9324646 30.454305,13.9866794 41.5,13.9866794 Z" id="形状结合" fill="#2BB6FB"></path>
                    <polygon id="矩形" fill="#2BB6FB" transform="translate(19.250000, 36.699997) rotate(-50.000000) translate(-19.250000, -36.699997) " points="18.6112521 31.6879893 20.582044 30.0342986 19.8657112 41.7313351 17.917956 43.3656958"></polygon>
                    <polygon id="矩形备份-4" fill="#2BB6FB" transform="translate(19.250000, 45.625493) rotate(-50.000000) translate(-19.250000, -45.625493) " points="18.6112521 40.6134855 20.582044 38.9597948 19.8657112 50.6568313 17.917956 52.291192"></polygon>
                    <rect id="矩形" fill="#2BB6FB" x="21.5" y="33.9676499" width="2" height="5.99429115"></rect>
                </g>
            </g>
        </g>
    </g>
</svg>