<?xml version="1.0" encoding="UTF-8"?>
<svg width="29px" height="28px" viewBox="0 0 29 28" version="1.1" xmlns="http://www.w3.org/2000/svg" xmlns:xlink="http://www.w3.org/1999/xlink">
    <!-- Generator: Sketch 60 (88103) - https://sketch.com -->
    <title>圆</title>
    <desc>Created with Sketch.</desc>
    <g id="数据大屏" stroke="none" stroke-width="1" fill="none" fill-rule="evenodd">
        <g id="数据大屏-Operations" transform="translate(-37.000000, -30.000000)">
            <g id="外框" transform="translate(10.000000, 10.000000)">
                <g id="圆" transform="translate(27.500000, 20.000000)">
                    <path d="M22.6398698,22.6346472 C27.4076434,17.8668736 27.4076434,10.1367851 22.6398698,5.36901148 C17.8720961,0.601237817 10.1420077,0.601237817 5.37423401,5.36901148 C0.606460346,10.1367851 0.606460346,17.8668736 5.37423401,22.6346472 C10.1420077,27.4024209 17.8720961,27.4024209 22.6398698,22.6346472 Z" id="椭圆形" stroke="#3BF2EC" stroke-width="0.576470588"></path>
                    <path d="M3.02505,12.6949681 C3.26198953,10.0370975 4.36770735,7.57420576 6.20398871,5.6654647 C7.38868637,4.43401885 8.81032355,3.51043446 10.3504305,2.94602178 L10.3504305,0.206054764 C8.1291224,0.852563835 6.09539143,2.07374764 4.42694223,3.80803387 C1.95882211,6.37354606 0.556929888,9.76002214 0.468077563,13.3825254 L3.02505,12.6949681 Z" id="路径" fill="#3BF2EC" fill-rule="nonzero" transform="translate(5.409254, 6.794290) rotate(1.000000) translate(-5.409254, -6.794290) "></path>
                    <path d="M16.3289218,3.02784338 C18.2057499,3.62177445 19.9347066,4.63365699 21.3679208,6.01949614 C21.5954151,6.23947061 21.80016,6.45944507 22.0049049,6.69041826 L24.5528412,5.27158295 C24.200225,4.84263274 23.8248594,4.43567997 23.4153696,4.03972593 C21.4247944,2.11494934 18.9792305,0.773105095 16.3175471,0.10218297 L16.3175471,3.02784338 L16.3289218,3.02784338 Z" id="路径" fill="#3BF2EC" fill-rule="nonzero"></path>
                    <path d="M11.5308115,24.5065933 C9.61562685,24.045809 7.86323287,23.055613 6.43642029,21.5948286 C5.86186488,21.0065933 5.35434094,20.3497306 4.93300031,19.6634561 L2.471988,20.3203188 C3.06569525,21.428162 3.81261728,22.4477698 4.70317815,23.3693384 C6.58963506,25.300711 8.95488814,26.5752208 11.5212356,27.0752208 L11.5212356,24.5065933 L11.5308115,24.5065933 Z" id="路径" fill="#3BF2EC" fill-rule="nonzero"></path>
                    <path d="M25.0578655,14.7850091 C24.8497306,17.5230165 23.7396778,20.075046 21.8466414,22.0381457 C20.8852564,23.0403597 19.7752036,23.8359316 18.566039,24.4041973 L18.566039,27.2455257 C20.4491642,26.5532748 22.1836217,25.4167435 23.640566,23.8979243 C26.207563,21.2219095 27.6248625,17.6573339 27.6248625,13.8654519 C27.6248625,13.6588099 27.6149513,13.4521678 27.6149513,13.2455257 L25.0578655,14.7850091 Z" id="路径" fill="#3BF2EC" fill-rule="nonzero"></path>
                    <path d="M20.8176939,20.8124714 C24.5791076,17.0510577 24.5791076,10.9526011 20.8176939,7.19118732 C17.0562802,3.42977359 10.9578236,3.42977359 7.19640985,7.19118732 C3.43499612,10.9526011 3.43499612,17.0510577 7.19640985,20.8124714 C10.9578236,24.5738851 17.0562802,24.5738851 20.8176939,20.8124714 Z" id="椭圆形" stroke="#3BF2EC" stroke-width="0.576470588" fill="#3BF2EC"></path>
                    <circle id="椭圆形" fill="#01133F" fill-rule="nonzero" cx="14.0685886" cy="13.9412098" r="3.37063823"></circle>
                </g>
            </g>
        </g>
    </g>
</svg>